<svg width="1080" height="2400" viewBox="0 0 1080 2400" fill="none" xmlns="http://www.w3.org/2000/svg">
<rect width="1080" height="2400" fill="white"/>
<rect x="27" y="308" width="134" height="134" rx="20" fill="#F0EFEF"/>
<text fill="black" xml:space="preserve" style="white-space: pre" font-family="Inter" font-size="48" letter-spacing="0em"><tspan x="78.6953" y="396.455">S</tspan></text>
<rect x="174" y="308" width="134" height="134" rx="20" fill="#F0EFEF"/>
<text fill="black" xml:space="preserve" style="white-space: pre" font-family="Inter" font-size="48" letter-spacing="0em"><tspan x="219.648" y="396.455">M</tspan></text>
<rect x="321" y="308" width="134" height="134" rx="20" fill="#F0EFEF"/>
<text fill="black" xml:space="preserve" style="white-space: pre" font-family="Inter" font-size="48" letter-spacing="0em"><tspan x="372.602" y="396.455">T</tspan></text>
<rect x="468" y="308" width="134" height="134" rx="20" fill="#F0EFEF"/>
<text fill="black" xml:space="preserve" style="white-space: pre" font-family="Inter" font-size="48" letter-spacing="0em"><tspan x="512.219" y="396.455">W</tspan></text>
<rect x="615" y="308" width="134" height="134" rx="20" fill="#F0EFEF"/>
<text fill="black" xml:space="preserve" style="white-space: pre" font-family="Inter" font-size="48" letter-spacing="0em"><tspan x="666.602" y="396.455">T</tspan></text>
<rect x="762" y="308" width="134" height="134" rx="20" fill="#F0EFEF"/>
<text fill="black" xml:space="preserve" style="white-space: pre" font-family="Inter" font-size="48" letter-spacing="0em"><tspan x="814.914" y="396.455">F</tspan></text>
<rect x="909" y="308" width="134" height="134" rx="20" fill="#F0EFEF"/>
<text fill="black" xml:space="preserve" style="white-space: pre" font-family="Inter" font-size="48" letter-spacing="0em"><tspan x="960.695" y="396.455">S</tspan></text>
<text fill="black" xml:space="preserve" style="white-space: pre" font-family="Inter" font-size="48" letter-spacing="0em"><tspan x="383.836" y="110.455">January 2025</tspan></text>
<path d="M974 77H960C958.939 77 957.922 77.4214 957.172 78.1716C956.421 78.9217 956 79.9391 956 81V109C956 110.061 956.421 111.078 957.172 111.828C957.922 112.579 958.939 113 960 113H988C989.061 113 990.078 112.579 990.828 111.828C991.579 111.078 992 110.061 992 109V95M989 74C989.796 73.2044 990.875 72.7574 992 72.7574C993.125 72.7574 994.204 73.2044 995 74C995.796 74.7957 996.243 75.8748 996.243 77C996.243 78.1252 995.796 79.2044 995 80L976 99L968 101L970 93L989 74Z" stroke="#1E1E1E" stroke-width="4" stroke-linecap="round" stroke-linejoin="round"/>
<rect x="27" y="456" width="134" height="134" rx="20" fill="#A0A0A0"/>
<path d="M27 623C27 611.954 35.9543 603 47 603H141C152.046 603 161 611.954 161 623V717C161 728.046 152.046 737 141 737H47C35.9543 737 27 728.046 27 717V623Z" fill="#D9D9D9"/>
<g clip-path="url(#clip0_1_49)">
<path d="M129.053 705.053C129.053 701.523 127.651 698.137 125.154 695.641C122.658 693.144 119.272 691.742 115.742 691.742C112.211 691.742 108.826 693.144 106.329 695.641C103.833 698.137 102.43 701.523 102.43 705.053M115.742 681.093V662.457M115.742 681.093L126.391 670.444M115.742 681.093L105.093 670.444M95.0294 684.341L98.8098 688.121M86.457 705.053H91.7815M139.702 705.053H145.026M132.674 688.121L136.454 684.341M145.026 715.702H86.457" stroke="#1E1E1E" stroke-width="4" stroke-linecap="round" stroke-linejoin="round"/>
</g>
<text fill="black" xml:space="preserve" style="white-space: pre" font-family="Inter" font-size="48" letter-spacing="0em"><tspan x="37" y="657.455">5</tspan></text>
<path d="M174 623C174 611.954 182.954 603 194 603H288C299.046 603 308 611.954 308 623V717C308 728.046 299.046 737 288 737H194C182.954 737 174 728.046 174 717V623Z" fill="#D9D9D9"/>
<g clip-path="url(#clip1_1_49)">
<path d="M276.053 705.053C276.053 701.523 274.651 698.137 272.154 695.641C269.658 693.144 266.272 691.742 262.742 691.742C259.211 691.742 255.826 693.144 253.329 695.641C250.833 698.137 249.43 701.523 249.43 705.053M262.742 681.093V662.457M262.742 681.093L273.391 670.444M262.742 681.093L252.093 670.444M242.029 684.341L245.81 688.121M233.457 705.053H238.781M286.702 705.053H292.026M279.674 688.121L283.454 684.341M292.026 715.702H233.457" stroke="#1E1E1E" stroke-width="4" stroke-linecap="round" stroke-linejoin="round"/>
</g>
<text fill="black" xml:space="preserve" style="white-space: pre" font-family="Inter" font-size="48" letter-spacing="0em"><tspan x="184" y="657.455">6</tspan></text>
<path d="M321 623C321 611.954 329.954 603 341 603H435C446.046 603 455 611.954 455 623V717C455 728.046 446.046 737 435 737H341C329.954 737 321 728.046 321 717V623Z" fill="#D9D9D9"/>
<g clip-path="url(#clip2_1_49)">
<path d="M423.053 705.053C423.053 701.523 421.651 698.137 419.154 695.641C416.658 693.144 413.272 691.742 409.742 691.742C406.211 691.742 402.826 693.144 400.329 695.641C397.833 698.137 396.43 701.523 396.43 705.053M409.742 681.093V662.457M409.742 681.093L420.391 670.444M409.742 681.093L399.093 670.444M389.029 684.341L392.81 688.121M380.457 705.053H385.781M433.702 705.053H439.027M426.674 688.121L430.454 684.341M439.027 715.702H380.457" stroke="#1E1E1E" stroke-width="4" stroke-linecap="round" stroke-linejoin="round"/>
</g>
<text fill="black" xml:space="preserve" style="white-space: pre" font-family="Inter" font-size="48" letter-spacing="0em"><tspan x="331" y="657.455">7</tspan></text>
<path d="M468 623C468 611.954 476.954 603 488 603H582C593.046 603 602 611.954 602 623V717C602 728.046 593.046 737 582 737H488C476.954 737 468 728.046 468 717V623Z" fill="#D9D9D9"/>
<path d="M572.715 673.106L540.768 705.053M540.768 673.106L572.715 705.053" stroke="#1E1E1E" stroke-width="4" stroke-linecap="round" stroke-linejoin="round"/>
<text fill="black" xml:space="preserve" style="white-space: pre" font-family="Inter" font-size="48" letter-spacing="0em"><tspan x="478" y="657.455">8</tspan></text>
<path d="M615 623C615 611.954 623.954 603 635 603H729C740.046 603 749 611.954 749 623V717C749 728.046 740.046 737 729 737H635C623.954 737 615 728.046 615 717V623Z" fill="#D9D9D9"/>
<path d="M719.715 673.106L687.768 705.053M687.768 673.106L719.715 705.053" stroke="#1E1E1E" stroke-width="4" stroke-linecap="round" stroke-linejoin="round"/>
<text fill="black" xml:space="preserve" style="white-space: pre" font-family="Inter" font-size="48" letter-spacing="0em"><tspan x="625" y="657.455">9</tspan></text>
<path d="M762 623C762 611.954 770.954 603 782 603H876C887.046 603 896 611.954 896 623V717C896 728.046 887.046 737 876 737H782C770.954 737 762 728.046 762 717V623Z" fill="#D9D9D9"/>
<g clip-path="url(#clip3_1_49)">
<path d="M850.742 659.795V665.119M850.742 713.04V718.364M830.029 668.367L833.81 672.148M867.674 706.011L871.454 709.792M821.457 689.079H826.781M874.702 689.079H880.026M830.029 709.792L833.81 706.011M867.674 672.148L871.454 668.367M864.053 689.079C864.053 696.431 858.093 702.391 850.742 702.391C843.39 702.391 837.43 696.431 837.43 689.079C837.43 681.728 843.39 675.768 850.742 675.768C858.093 675.768 864.053 681.728 864.053 689.079Z" stroke="#1E1E1E" stroke-width="4" stroke-linecap="round" stroke-linejoin="round"/>
</g>
<text fill="black" xml:space="preserve" style="white-space: pre" font-family="Inter" font-size="48" letter-spacing="0em"><tspan x="772" y="657.455">10</tspan></text>
<path d="M909 623C909 611.954 917.954 603 929 603H1023C1034.05 603 1043 611.954 1043 623V717C1043 728.046 1034.05 737 1023 737H929C917.954 737 909 728.046 909 717V623Z" fill="#D9D9D9"/>
<g clip-path="url(#clip4_1_49)">
<path d="M997.742 659.795V665.119M997.742 713.04V718.364M977.029 668.367L980.81 672.148M1014.67 706.011L1018.45 709.792M968.457 689.079H973.781M1021.7 689.079H1027.03M977.029 709.792L980.81 706.011M1014.67 672.148L1018.45 668.367M1011.05 689.079C1011.05 696.431 1005.09 702.391 997.742 702.391C990.39 702.391 984.43 696.431 984.43 689.079C984.43 681.728 990.39 675.768 997.742 675.768C1005.09 675.768 1011.05 681.728 1011.05 689.079Z" stroke="#1E1E1E" stroke-width="4" stroke-linecap="round" stroke-linejoin="round"/>
</g>
<text fill="black" xml:space="preserve" style="white-space: pre" font-family="Inter" font-size="48" letter-spacing="0em"><tspan x="919" y="657.455">11</tspan></text>
<path d="M27 770C27 758.954 35.9543 750 47 750H141C152.046 750 161 758.954 161 770V864C161 875.046 152.046 884 141 884H47C35.9543 884 27 875.046 27 864V770Z" fill="#D9D9D9"/>
<g clip-path="url(#clip5_1_49)">
<path d="M115.742 806.795V812.119M115.742 860.04V865.364M95.0294 815.367L98.8098 819.148M132.674 853.011L136.454 856.792M86.457 836.079H91.7815M139.702 836.079H145.026M95.0294 856.792L98.8098 853.011M132.674 819.148L136.454 815.367M129.053 836.079C129.053 843.431 123.093 849.391 115.742 849.391C108.39 849.391 102.43 843.431 102.43 836.079C102.43 828.728 108.39 822.768 115.742 822.768C123.093 822.768 129.053 828.728 129.053 836.079Z" stroke="#1E1E1E" stroke-width="4" stroke-linecap="round" stroke-linejoin="round"/>
</g>
<text fill="black" xml:space="preserve" style="white-space: pre" font-family="Inter" font-size="48" letter-spacing="0em"><tspan x="37" y="804.455">12</tspan></text>
<path d="M174 770C174 758.954 182.954 750 194 750H288C299.046 750 308 758.954 308 770V864C308 875.046 299.046 884 288 884H194C182.954 884 174 875.046 174 864V770Z" fill="#D9D9D9"/>
<g clip-path="url(#clip6_1_49)">
<path d="M262.742 806.795V812.119M262.742 860.04V865.364M242.029 815.367L245.81 819.148M279.674 853.011L283.454 856.792M233.457 836.079H238.781M286.702 836.079H292.026M242.029 856.792L245.81 853.011M279.674 819.148L283.454 815.367M276.053 836.079C276.053 843.431 270.093 849.391 262.742 849.391C255.39 849.391 249.43 843.431 249.43 836.079C249.43 828.728 255.39 822.768 262.742 822.768C270.093 822.768 276.053 828.728 276.053 836.079Z" stroke="#1E1E1E" stroke-width="4" stroke-linecap="round" stroke-linejoin="round"/>
</g>
<text fill="black" xml:space="preserve" style="white-space: pre" font-family="Inter" font-size="48" letter-spacing="0em"><tspan x="184" y="804.455">13</tspan></text>
<path d="M321 770C321 758.954 329.954 750 341 750H435C446.046 750 455 758.954 455 770V864C455 875.046 446.046 884 435 884H341C329.954 884 321 875.046 321 864V770Z" fill="#D9D9D9"/>
<g clip-path="url(#clip7_1_49)">
<path d="M409.742 806.795V812.119M409.742 860.04V865.364M389.029 815.367L392.81 819.148M426.674 853.011L430.454 856.792M380.457 836.079H385.781M433.702 836.079H439.027M389.029 856.792L392.81 853.011M426.674 819.148L430.454 815.367M423.053 836.079C423.053 843.431 417.093 849.391 409.742 849.391C402.39 849.391 396.43 843.431 396.43 836.079C396.43 828.728 402.39 822.768 409.742 822.768C417.093 822.768 423.053 828.728 423.053 836.079Z" stroke="#1E1E1E" stroke-width="4" stroke-linecap="round" stroke-linejoin="round"/>
</g>
<text fill="black" xml:space="preserve" style="white-space: pre" font-family="Inter" font-size="48" letter-spacing="0em"><tspan x="331" y="804.455">14</tspan></text>
<path d="M468 770C468 758.954 476.954 750 488 750H582C593.046 750 602 758.954 602 770V864C602 875.046 593.046 884 582 884H488C476.954 884 468 875.046 468 864V770Z" fill="#D9D9D9"/>
<g clip-path="url(#clip8_1_49)">
<path d="M556.742 806.795V812.119M556.742 860.04V865.364M536.029 815.367L539.81 819.148M573.674 853.011L577.454 856.792M527.457 836.079H532.781M580.702 836.079H586.027M536.029 856.792L539.81 853.011M573.674 819.148L577.454 815.367M570.053 836.079C570.053 843.431 564.093 849.391 556.742 849.391C549.39 849.391 543.43 843.431 543.43 836.079C543.43 828.728 549.39 822.768 556.742 822.768C564.093 822.768 570.053 828.728 570.053 836.079Z" stroke="#1E1E1E" stroke-width="4" stroke-linecap="round" stroke-linejoin="round"/>
</g>
<text fill="black" xml:space="preserve" style="white-space: pre" font-family="Inter" font-size="48" letter-spacing="0em"><tspan x="478" y="804.455">15</tspan></text>
<path d="M615 770C615 758.954 623.954 750 635 750H729C740.046 750 749 758.954 749 770V864C749 875.046 740.046 884 729 884H635C623.954 884 615 875.046 615 864V770Z" fill="#D9D9D9"/>
<rect x="617.5" y="752.5" width="129" height="129" rx="17.5" stroke="#2C2C2C" stroke-width="5"/>
<g clip-path="url(#clip9_1_49)">
<path d="M703.742 806.795V812.119M703.742 860.04V865.364M683.029 815.367L686.81 819.148M720.674 853.011L724.454 856.792M674.457 836.079H679.781M727.702 836.079H733.026M683.029 856.792L686.81 853.011M720.674 819.148L724.454 815.367M717.053 836.079C717.053 843.431 711.093 849.391 703.742 849.391C696.39 849.391 690.43 843.431 690.43 836.079C690.43 828.728 696.39 822.768 703.742 822.768C711.093 822.768 717.053 828.728 717.053 836.079Z" stroke="#1E1E1E" stroke-width="4" stroke-linecap="round" stroke-linejoin="round"/>
</g>
<text fill="black" xml:space="preserve" style="white-space: pre" font-family="Inter" font-size="48" letter-spacing="0em"><tspan x="625" y="804.455">16</tspan></text>
<path d="M762 770C762 758.954 770.954 750 782 750H876C887.046 750 896 758.954 896 770V864C896 875.046 887.046 884 876 884H782C770.954 884 762 875.046 762 864V770Z" fill="#D9D9D9"/>
<g clip-path="url(#clip10_1_49)">
<path d="M850.742 806.795V812.119M850.742 860.04V865.364M830.029 815.367L833.81 819.148M867.674 853.011L871.454 856.792M821.457 836.079H826.781M874.702 836.079H880.026M830.029 856.792L833.81 853.011M867.674 819.148L871.454 815.367M864.053 836.079C864.053 843.431 858.093 849.391 850.742 849.391C843.39 849.391 837.43 843.431 837.43 836.079C837.43 828.728 843.39 822.768 850.742 822.768C858.093 822.768 864.053 828.728 864.053 836.079Z" stroke="#1E1E1E" stroke-width="4" stroke-linecap="round" stroke-linejoin="round"/>
</g>
<text fill="black" xml:space="preserve" style="white-space: pre" font-family="Inter" font-size="48" letter-spacing="0em"><tspan x="772" y="804.455">17</tspan></text>
<path d="M909 770C909 758.954 917.954 750 929 750H1023C1034.05 750 1043 758.954 1043 770V864C1043 875.046 1034.05 884 1023 884H929C917.954 884 909 875.046 909 864V770Z" fill="#D9D9D9"/>
<g clip-path="url(#clip11_1_49)">
<path d="M997.742 806.795V812.119M997.742 860.04V865.364M977.029 815.367L980.81 819.148M1014.67 853.011L1018.45 856.792M968.457 836.079H973.781M1021.7 836.079H1027.03M977.029 856.792L980.81 853.011M1014.67 819.148L1018.45 815.367M1011.05 836.079C1011.05 843.431 1005.09 849.391 997.742 849.391C990.39 849.391 984.43 843.431 984.43 836.079C984.43 828.728 990.39 822.768 997.742 822.768C1005.09 822.768 1011.05 828.728 1011.05 836.079Z" stroke="#1E1E1E" stroke-width="4" stroke-linecap="round" stroke-linejoin="round"/>
</g>
<text fill="black" xml:space="preserve" style="white-space: pre" font-family="Inter" font-size="48" letter-spacing="0em"><tspan x="919" y="804.455">18</tspan></text>
<path d="M27 917C27 905.954 35.9543 897 47 897H141C152.046 897 161 905.954 161 917V1011C161 1022.05 152.046 1031 141 1031H47C35.9543 1031 27 1022.05 27 1011V917Z" fill="#D9D9D9"/>
<path d="M126.391 1007.04V964.444C126.391 963.032 125.83 961.677 124.831 960.679C123.833 959.68 122.478 959.119 121.066 959.119H110.417C109.005 959.119 107.651 959.68 106.652 960.679C105.654 961.677 105.093 963.032 105.093 964.444V1007.04M94.4437 969.768H137.04C139.98 969.768 142.364 972.152 142.364 975.093V1001.72C142.364 1004.66 139.98 1007.04 137.04 1007.04H94.4437C91.5031 1007.04 89.1192 1004.66 89.1192 1001.72V975.093C89.1192 972.152 91.5031 969.768 94.4437 969.768Z" stroke="#1E1E1E" stroke-width="4" stroke-linecap="round" stroke-linejoin="round"/>
<text fill="black" xml:space="preserve" style="white-space: pre" font-family="Inter" font-size="48" letter-spacing="0em"><tspan x="37" y="951.455">19</tspan></text>
<path d="M174 917C174 905.954 182.954 897 194 897H288C299.046 897 308 905.954 308 917V1011C308 1022.05 299.046 1031 288 1031H194C182.954 1031 174 1022.05 174 1011V917Z" fill="#D9D9D9"/>
<path d="M273.391 1007.04V964.444C273.391 963.032 272.83 961.677 271.831 960.679C270.833 959.68 269.478 959.119 268.066 959.119H257.417C256.005 959.119 254.651 959.68 253.652 960.679C252.654 961.677 252.093 963.032 252.093 964.444V1007.04M241.444 969.768H284.04C286.98 969.768 289.364 972.152 289.364 975.093V1001.72C289.364 1004.66 286.98 1007.04 284.04 1007.04H241.444C238.503 1007.04 236.119 1004.66 236.119 1001.72V975.093C236.119 972.152 238.503 969.768 241.444 969.768Z" stroke="#1E1E1E" stroke-width="4" stroke-linecap="round" stroke-linejoin="round"/>
<text fill="black" xml:space="preserve" style="white-space: pre" font-family="Inter" font-size="48" letter-spacing="0em"><tspan x="184" y="951.455">20</tspan></text>
<path d="M321 917C321 905.954 329.954 897 341 897H435C446.046 897 455 905.954 455 917V1011C455 1022.05 446.046 1031 435 1031H341C329.954 1031 321 1022.05 321 1011V917Z" fill="#D9D9D9"/>
<path d="M420.391 1007.04V964.444C420.391 963.032 419.83 961.677 418.831 960.679C417.833 959.68 416.478 959.119 415.066 959.119H404.417C403.005 959.119 401.651 959.68 400.652 960.679C399.654 961.677 399.093 963.032 399.093 964.444V1007.04M388.444 969.768H431.04C433.98 969.768 436.364 972.152 436.364 975.093V1001.72C436.364 1004.66 433.98 1007.04 431.04 1007.04H388.444C385.503 1007.04 383.119 1004.66 383.119 1001.72V975.093C383.119 972.152 385.503 969.768 388.444 969.768Z" stroke="#1E1E1E" stroke-width="4" stroke-linecap="round" stroke-linejoin="round"/>
<text fill="black" xml:space="preserve" style="white-space: pre" font-family="Inter" font-size="48" letter-spacing="0em"><tspan x="331" y="951.455">21</tspan></text>
<path d="M468 917C468 905.954 476.954 897 488 897H582C593.046 897 602 905.954 602 917V1011C602 1022.05 593.046 1031 582 1031H488C476.954 1031 468 1022.05 468 1011V917Z" fill="#D9D9D9"/>
<path d="M567.391 1007.04V964.444C567.391 963.032 566.83 961.677 565.831 960.679C564.833 959.68 563.478 959.119 562.066 959.119H551.417C550.005 959.119 548.651 959.68 547.652 960.679C546.654 961.677 546.093 963.032 546.093 964.444V1007.04M535.444 969.768H578.04C580.98 969.768 583.364 972.152 583.364 975.093V1001.72C583.364 1004.66 580.98 1007.04 578.04 1007.04H535.444C532.503 1007.04 530.119 1004.66 530.119 1001.72V975.093C530.119 972.152 532.503 969.768 535.444 969.768Z" stroke="#1E1E1E" stroke-width="4" stroke-linecap="round" stroke-linejoin="round"/>
<text fill="black" xml:space="preserve" style="white-space: pre" font-family="Inter" font-size="48" letter-spacing="0em"><tspan x="478" y="951.455">22</tspan></text>
<path d="M615 917C615 905.954 623.954 897 635 897H729C740.046 897 749 905.954 749 917V1011C749 1022.05 740.046 1031 729 1031H635C623.954 1031 615 1022.05 615 1011V917Z" fill="#D9D9D9"/>
<path d="M714.391 1007.04V964.444C714.391 963.032 713.83 961.677 712.831 960.679C711.833 959.68 710.478 959.119 709.066 959.119H698.417C697.005 959.119 695.651 959.68 694.652 960.679C693.654 961.677 693.093 963.032 693.093 964.444V1007.04M682.444 969.768H725.04C727.98 969.768 730.364 972.152 730.364 975.093V1001.72C730.364 1004.66 727.98 1007.04 725.04 1007.04H682.444C679.503 1007.04 677.119 1004.66 677.119 1001.72V975.093C677.119 972.152 679.503 969.768 682.444 969.768Z" stroke="#1E1E1E" stroke-width="4" stroke-linecap="round" stroke-linejoin="round"/>
<text fill="black" xml:space="preserve" style="white-space: pre" font-family="Inter" font-size="48" letter-spacing="0em"><tspan x="625" y="951.455">23</tspan></text>
<path d="M762 917C762 905.954 770.954 897 782 897H876C887.046 897 896 905.954 896 917V1011C896 1022.05 887.046 1031 876 1031H782C770.954 1031 762 1022.05 762 1011V917Z" fill="#D9D9D9"/>
<g clip-path="url(#clip12_1_49)">
<path d="M850.742 953.795V959.119M850.742 1007.04V1012.36M830.029 962.367L833.81 966.148M867.674 1000.01L871.454 1003.79M821.457 983.079H826.781M874.702 983.079H880.026M830.029 1003.79L833.81 1000.01M867.674 966.148L871.454 962.367M864.053 983.079C864.053 990.431 858.093 996.391 850.742 996.391C843.39 996.391 837.43 990.431 837.43 983.079C837.43 975.728 843.39 969.768 850.742 969.768C858.093 969.768 864.053 975.728 864.053 983.079Z" stroke="#1E1E1E" stroke-width="4" stroke-linecap="round" stroke-linejoin="round"/>
</g>
<text fill="black" xml:space="preserve" style="white-space: pre" font-family="Inter" font-size="48" letter-spacing="0em"><tspan x="772" y="951.455">24</tspan></text>
<path d="M909 917C909 905.954 917.954 897 929 897H1023C1034.05 897 1043 905.954 1043 917V1011C1043 1022.05 1034.05 1031 1023 1031H929C917.954 1031 909 1022.05 909 1011V917Z" fill="#D9D9D9"/>
<g clip-path="url(#clip13_1_49)">
<path d="M997.742 953.795V959.119M997.742 1007.04V1012.36M977.029 962.367L980.81 966.148M1014.67 1000.01L1018.45 1003.79M968.457 983.079H973.781M1021.7 983.079H1027.03M977.029 1003.79L980.81 1000.01M1014.67 966.148L1018.45 962.367M1011.05 983.079C1011.05 990.431 1005.09 996.391 997.742 996.391C990.39 996.391 984.43 990.431 984.43 983.079C984.43 975.728 990.39 969.768 997.742 969.768C1005.09 969.768 1011.05 975.728 1011.05 983.079Z" stroke="#1E1E1E" stroke-width="4" stroke-linecap="round" stroke-linejoin="round"/>
</g>
<text fill="black" xml:space="preserve" style="white-space: pre" font-family="Inter" font-size="48" letter-spacing="0em"><tspan x="919" y="951.455">25</tspan></text>
<path d="M27 1064C27 1052.95 35.9543 1044 47 1044H141C152.046 1044 161 1052.95 161 1064V1158C161 1169.05 152.046 1178 141 1178H47C35.9543 1178 27 1169.05 27 1158V1064Z" fill="#D9D9D9"/>
<g clip-path="url(#clip14_1_49)">
<path d="M115.742 1100.79V1106.12M115.742 1154.04V1159.36M95.0294 1109.37L98.8098 1113.15M132.674 1147.01L136.454 1150.79M86.457 1130.08H91.7815M139.702 1130.08H145.026M95.0294 1150.79L98.8098 1147.01M132.674 1113.15L136.454 1109.37M129.053 1130.08C129.053 1137.43 123.093 1143.39 115.742 1143.39C108.39 1143.39 102.43 1137.43 102.43 1130.08C102.43 1122.73 108.39 1116.77 115.742 1116.77C123.093 1116.77 129.053 1122.73 129.053 1130.08Z" stroke="#1E1E1E" stroke-width="4" stroke-linecap="round" stroke-linejoin="round"/>
</g>
<text fill="black" xml:space="preserve" style="white-space: pre" font-family="Inter" font-size="48" letter-spacing="0em"><tspan x="37" y="1098.45">26</tspan></text>
<path d="M174 1064C174 1052.95 182.954 1044 194 1044H288C299.046 1044 308 1052.95 308 1064V1158C308 1169.05 299.046 1178 288 1178H194C182.954 1178 174 1169.05 174 1158V1064Z" fill="#D9D9D9"/>
<g clip-path="url(#clip15_1_49)">
<path d="M262.742 1100.79V1106.12M262.742 1154.04V1159.36M242.029 1109.37L245.81 1113.15M279.674 1147.01L283.454 1150.79M233.457 1130.08H238.781M286.702 1130.08H292.026M242.029 1150.79L245.81 1147.01M279.674 1113.15L283.454 1109.37M276.053 1130.08C276.053 1137.43 270.093 1143.39 262.742 1143.39C255.39 1143.39 249.43 1137.43 249.43 1130.08C249.43 1122.73 255.39 1116.77 262.742 1116.77C270.093 1116.77 276.053 1122.73 276.053 1130.08Z" stroke="#1E1E1E" stroke-width="4" stroke-linecap="round" stroke-linejoin="round"/>
</g>
<text fill="black" xml:space="preserve" style="white-space: pre" font-family="Inter" font-size="48" letter-spacing="0em"><tspan x="184" y="1098.45">27</tspan></text>
<path d="M321 1064C321 1052.95 329.954 1044 341 1044H435C446.046 1044 455 1052.95 455 1064V1158C455 1169.05 446.046 1178 435 1178H341C329.954 1178 321 1169.05 321 1158V1064Z" fill="#D9D9D9"/>
<path d="M433.702 1132.18C433.283 1136.71 431.582 1141.03 428.799 1144.63C426.015 1148.23 422.264 1150.97 417.983 1152.51C413.703 1154.06 409.071 1154.35 404.629 1153.36C400.187 1152.37 396.119 1150.14 392.901 1146.92C389.683 1143.7 387.448 1139.63 386.457 1135.19C385.467 1130.75 385.762 1126.12 387.308 1121.84C388.854 1117.56 391.587 1113.81 395.188 1111.02C398.788 1108.24 403.107 1106.54 407.639 1106.12C404.985 1109.71 403.709 1114.13 404.041 1118.58C404.373 1123.03 406.291 1127.22 409.447 1130.37C412.603 1133.53 416.788 1135.45 421.239 1135.78C425.69 1136.11 430.113 1134.84 433.702 1132.18Z" stroke="#1E1E1E" stroke-width="4" stroke-linecap="round" stroke-linejoin="round"/>
<text fill="black" xml:space="preserve" style="white-space: pre" font-family="Inter" font-size="48" letter-spacing="0em"><tspan x="331" y="1098.45">28</tspan></text>
<path d="M468 1064C468 1052.95 476.954 1044 488 1044H582C593.046 1044 602 1052.95 602 1064V1158C602 1169.05 593.046 1178 582 1178H488C476.954 1178 468 1169.05 468 1158V1064Z" fill="#D9D9D9"/>
<path d="M580.702 1132.18C580.283 1136.71 578.582 1141.03 575.799 1144.63C573.015 1148.23 569.264 1150.97 564.983 1152.51C560.703 1154.06 556.071 1154.35 551.629 1153.36C547.187 1152.37 543.119 1150.14 539.901 1146.92C536.683 1143.7 534.448 1139.63 533.457 1135.19C532.467 1130.75 532.762 1126.12 534.308 1121.84C535.854 1117.56 538.587 1113.81 542.188 1111.02C545.788 1108.24 550.107 1106.54 554.639 1106.12C551.985 1109.71 550.709 1114.13 551.041 1118.58C551.373 1123.03 553.291 1127.22 556.447 1130.37C559.603 1133.53 563.788 1135.45 568.239 1135.78C572.69 1136.11 577.113 1134.84 580.702 1132.18Z" stroke="#1E1E1E" stroke-width="4" stroke-linecap="round" stroke-linejoin="round"/>
<text fill="black" xml:space="preserve" style="white-space: pre" font-family="Inter" font-size="48" letter-spacing="0em"><tspan x="478" y="1098.45">29</tspan></text>
<path d="M615 1064C615 1052.95 623.954 1044 635 1044H729C740.046 1044 749 1052.95 749 1064V1158C749 1169.05 740.046 1178 729 1178H635C623.954 1178 615 1169.05 615 1158V1064Z" fill="#D9D9D9"/>
<path d="M727.702 1132.18C727.283 1136.71 725.582 1141.03 722.799 1144.63C720.015 1148.23 716.264 1150.97 711.983 1152.51C707.703 1154.06 703.071 1154.35 698.629 1153.36C694.187 1152.37 690.119 1150.14 686.901 1146.92C683.683 1143.7 681.448 1139.63 680.457 1135.19C679.467 1130.75 679.762 1126.12 681.308 1121.84C682.854 1117.56 685.587 1113.81 689.188 1111.02C692.788 1108.24 697.107 1106.54 701.639 1106.12C698.985 1109.71 697.709 1114.13 698.041 1118.58C698.373 1123.03 700.291 1127.22 703.447 1130.37C706.603 1133.53 710.788 1135.45 715.239 1135.78C719.69 1136.11 724.113 1134.84 727.702 1132.18Z" stroke="#1E1E1E" stroke-width="4" stroke-linecap="round" stroke-linejoin="round"/>
<text fill="black" xml:space="preserve" style="white-space: pre" font-family="Inter" font-size="48" letter-spacing="0em"><tspan x="625" y="1098.45">30</tspan></text>
<path d="M762 1064C762 1052.95 770.954 1044 782 1044H876C887.046 1044 896 1052.95 896 1064V1158C896 1169.05 887.046 1178 876 1178H782C770.954 1178 762 1169.05 762 1158V1064Z" fill="#D9D9D9"/>
<path d="M874.702 1132.18C874.283 1136.71 872.582 1141.03 869.799 1144.63C867.015 1148.23 863.264 1150.97 858.983 1152.51C854.703 1154.06 850.071 1154.35 845.629 1153.36C841.187 1152.37 837.119 1150.14 833.901 1146.92C830.683 1143.7 828.448 1139.63 827.457 1135.19C826.467 1130.75 826.762 1126.12 828.308 1121.84C829.854 1117.56 832.587 1113.81 836.188 1111.02C839.788 1108.24 844.107 1106.54 848.639 1106.12C845.985 1109.71 844.709 1114.13 845.041 1118.58C845.373 1123.03 847.291 1127.22 850.447 1130.37C853.603 1133.53 857.788 1135.45 862.239 1135.78C866.69 1136.11 871.113 1134.84 874.702 1132.18Z" stroke="#1E1E1E" stroke-width="4" stroke-linecap="round" stroke-linejoin="round"/>
<text fill="black" xml:space="preserve" style="white-space: pre" font-family="Inter" font-size="48" letter-spacing="0em"><tspan x="772" y="1098.45">31</tspan></text>
<rect x="909" y="1044" width="134" height="134" rx="20" fill="#A0A0A0"/>
<rect x="174" y="456" width="134" height="134" rx="20" fill="#A0A0A0"/>
<rect x="321" y="456" width="134" height="134" rx="20" fill="#A0A0A0"/>
<path d="M468 476C468 464.954 476.954 456 488 456H582C593.046 456 602 464.954 602 476V570C602 581.046 593.046 590 582 590H488C476.954 590 468 581.046 468 570V476Z" fill="#D9D9D9"/>
<path d="M580.702 544.183C580.283 548.714 578.582 553.033 575.799 556.633C573.015 560.234 569.264 562.967 564.983 564.513C560.703 566.059 556.071 566.354 551.629 565.364C547.187 564.373 543.119 562.138 539.901 558.92C536.683 555.702 534.448 551.634 533.457 547.192C532.467 542.75 532.762 538.118 534.308 533.838C535.854 529.558 538.587 525.806 542.188 523.022C545.788 520.239 550.107 518.538 554.639 518.119C551.985 521.709 550.709 526.131 551.041 530.582C551.373 535.033 553.291 539.218 556.447 542.374C559.603 545.53 563.788 547.449 568.239 547.781C572.69 548.113 577.113 546.836 580.702 544.183Z" stroke="#1E1E1E" stroke-width="4" stroke-linecap="round" stroke-linejoin="round"/>
<text fill="black" xml:space="preserve" style="white-space: pre" font-family="Inter" font-size="48" letter-spacing="0em"><tspan x="478" y="510.455">1</tspan></text>
<path d="M615 476C615 464.954 623.954 456 635 456H729C740.046 456 749 464.954 749 476V570C749 581.046 740.046 590 729 590H635C623.954 590 615 581.046 615 570V476Z" fill="#D9D9D9"/>
<path d="M727.702 544.183C727.283 548.714 725.582 553.033 722.799 556.633C720.015 560.234 716.264 562.967 711.983 564.513C707.703 566.059 703.071 566.354 698.629 565.364C694.187 564.373 690.119 562.138 686.901 558.92C683.683 555.702 681.448 551.634 680.457 547.192C679.467 542.75 679.762 538.118 681.308 533.838C682.854 529.558 685.587 525.806 689.188 523.022C692.788 520.239 697.107 518.538 701.639 518.119C698.985 521.709 697.709 526.131 698.041 530.582C698.373 535.033 700.291 539.218 703.447 542.374C706.603 545.53 710.788 547.449 715.239 547.781C719.69 548.113 724.113 546.836 727.702 544.183Z" stroke="#1E1E1E" stroke-width="4" stroke-linecap="round" stroke-linejoin="round"/>
<text fill="black" xml:space="preserve" style="white-space: pre" font-family="Inter" font-size="48" letter-spacing="0em"><tspan x="625" y="510.455">2</tspan></text>
<path d="M762 476C762 464.954 770.954 456 782 456H876C887.046 456 896 464.954 896 476V570C896 581.046 887.046 590 876 590H782C770.954 590 762 581.046 762 570V476Z" fill="#D9D9D9"/>
<path d="M874.702 544.183C874.283 548.714 872.582 553.033 869.799 556.633C867.015 560.234 863.264 562.967 858.983 564.513C854.703 566.059 850.071 566.354 845.629 565.364C841.187 564.373 837.119 562.138 833.901 558.92C830.683 555.702 828.448 551.634 827.457 547.192C826.467 542.75 826.762 538.118 828.308 533.838C829.854 529.558 832.587 525.806 836.188 523.022C839.788 520.239 844.107 518.538 848.639 518.119C845.985 521.709 844.709 526.131 845.041 530.582C845.373 535.033 847.291 539.218 850.447 542.374C853.603 545.53 857.788 547.449 862.239 547.781C866.69 548.113 871.113 546.836 874.702 544.183Z" stroke="#1E1E1E" stroke-width="4" stroke-linecap="round" stroke-linejoin="round"/>
<text fill="black" xml:space="preserve" style="white-space: pre" font-family="Inter" font-size="48" letter-spacing="0em"><tspan x="772" y="510.455">3</tspan></text>
<path d="M909 476C909 464.954 917.954 456 929 456H1023C1034.05 456 1043 464.954 1043 476V570C1043 581.046 1034.05 590 1023 590H929C917.954 590 909 581.046 909 570V476Z" fill="#D9D9D9"/>
<path d="M1021.7 544.183C1021.28 548.714 1019.58 553.033 1016.8 556.633C1014.02 560.234 1010.26 562.967 1005.98 564.513C1001.7 566.059 997.071 566.354 992.629 565.364C988.187 564.373 984.119 562.138 980.901 558.92C977.683 555.702 975.448 551.634 974.457 547.192C973.467 542.75 973.762 538.118 975.308 533.838C976.854 529.558 979.587 525.806 983.188 523.022C986.788 520.239 991.107 518.538 995.639 518.119C992.985 521.709 991.709 526.131 992.041 530.582C992.373 535.033 994.291 539.218 997.447 542.374C1000.6 545.53 1004.79 547.449 1009.24 547.781C1013.69 548.113 1018.11 546.836 1021.7 544.183Z" stroke="#1E1E1E" stroke-width="4" stroke-linecap="round" stroke-linejoin="round"/>
<text fill="black" xml:space="preserve" style="white-space: pre" font-family="Inter" font-size="48" letter-spacing="0em"><tspan x="919" y="510.455">4</tspan></text>
<path d="M72 93C72 93 80 77 94 77C108 77 116 93 116 93C116 93 108 109 94 109C80 109 72 93 72 93Z" stroke="#1E1E1E" stroke-width="4" stroke-linecap="round" stroke-linejoin="round"/>
<path d="M94 99C97.3137 99 100 96.3137 100 93C100 89.6863 97.3137 87 94 87C90.6863 87 88 89.6863 88 93C88 96.3137 90.6863 99 94 99Z" stroke="#1E1E1E" stroke-width="4" stroke-linecap="round" stroke-linejoin="round"/>
<defs>
<clipPath id="clip0_1_49">
<rect width="63.894" height="63.894" fill="white" transform="translate(83.7947 657.132)"/>
</clipPath>
<clipPath id="clip1_1_49">
<rect width="63.894" height="63.894" fill="white" transform="translate(230.795 657.132)"/>
</clipPath>
<clipPath id="clip2_1_49">
<rect width="63.894" height="63.894" fill="white" transform="translate(377.795 657.132)"/>
</clipPath>
<clipPath id="clip3_1_49">
<rect width="63.894" height="63.894" fill="white" transform="translate(818.795 657.132)"/>
</clipPath>
<clipPath id="clip4_1_49">
<rect width="63.894" height="63.894" fill="white" transform="translate(965.795 657.132)"/>
</clipPath>
<clipPath id="clip5_1_49">
<rect width="63.894" height="63.894" fill="white" transform="translate(83.7947 804.132)"/>
</clipPath>
<clipPath id="clip6_1_49">
<rect width="63.894" height="63.894" fill="white" transform="translate(230.795 804.132)"/>
</clipPath>
<clipPath id="clip7_1_49">
<rect width="63.894" height="63.894" fill="white" transform="translate(377.795 804.132)"/>
</clipPath>
<clipPath id="clip8_1_49">
<rect width="63.894" height="63.894" fill="white" transform="translate(524.795 804.132)"/>
</clipPath>
<clipPath id="clip9_1_49">
<rect width="63.894" height="63.894" fill="white" transform="translate(671.795 804.132)"/>
</clipPath>
<clipPath id="clip10_1_49">
<rect width="63.894" height="63.894" fill="white" transform="translate(818.795 804.132)"/>
</clipPath>
<clipPath id="clip11_1_49">
<rect width="63.894" height="63.894" fill="white" transform="translate(965.795 804.132)"/>
</clipPath>
<clipPath id="clip12_1_49">
<rect width="63.894" height="63.894" fill="white" transform="translate(818.795 951.132)"/>
</clipPath>
<clipPath id="clip13_1_49">
<rect width="63.894" height="63.894" fill="white" transform="translate(965.795 951.132)"/>
</clipPath>
<clipPath id="clip14_1_49">
<rect width="63.894" height="63.894" fill="white" transform="translate(83.7947 1098.13)"/>
</clipPath>
<clipPath id="clip15_1_49">
<rect width="63.894" height="63.894" fill="white" transform="translate(230.795 1098.13)"/>
</clipPath>
</defs>
</svg>
