<svg width="1080" height="2400" viewBox="0 0 1080 2400" fill="none" xmlns="http://www.w3.org/2000/svg">
<rect width="1080" height="2400" fill="white"/>
<rect x="27" y="308" width="134" height="134" rx="20" fill="#F0EFEF"/>
<text fill="black" xml:space="preserve" style="white-space: pre" font-family="Inter" font-size="48" letter-spacing="0em"><tspan x="80.5" y="396.455">L</tspan></text>
<rect x="174" y="308" width="134" height="134" rx="20" fill="#F0EFEF"/>
<text fill="black" xml:space="preserve" style="white-space: pre" font-family="Inter" font-size="48" letter-spacing="0em"><tspan x="219.648" y="396.455">M</tspan></text>
<rect x="321" y="308" width="134" height="134" rx="20" fill="#F0EFEF"/>
<text fill="black" xml:space="preserve" style="white-space: pre" font-family="Inter" font-size="48" letter-spacing="0em"><tspan x="372.602" y="396.455">X</tspan></text>
<rect x="468" y="308" width="134" height="134" rx="20" fill="#F0EFEF"/>
<text fill="black" xml:space="preserve" style="white-space: pre" font-family="Inter" font-size="48" letter-spacing="0em"><tspan x="521.969" y="396.455">J</tspan></text>
<rect x="615" y="308" width="134" height="134" rx="20" fill="#F0EFEF"/>
<text fill="black" xml:space="preserve" style="white-space: pre" font-family="Inter" font-size="48" letter-spacing="0em"><tspan x="665.781" y="396.455">V</tspan></text>
<rect x="762" y="308" width="134" height="134" rx="20" fill="#F0EFEF"/>
<text fill="black" xml:space="preserve" style="white-space: pre" font-family="Inter" font-size="48" letter-spacing="0em"><tspan x="813.695" y="396.455">S</tspan></text>
<rect x="909" y="308" width="134" height="134" rx="20" fill="#F0EFEF"/>
<text fill="black" xml:space="preserve" style="white-space: pre" font-family="Inter" font-size="48" letter-spacing="0em"><tspan x="958.75" y="396.455">D</tspan></text>
<text fill="black" xml:space="preserve" style="white-space: pre" font-family="Inter" font-size="48" letter-spacing="0em"><tspan x="409.383" y="110.455">Enero 2025</tspan></text>
<path d="M974 77H960C958.939 77 957.922 77.4214 957.172 78.1716C956.421 78.9217 956 79.9391 956 81V109C956 110.061 956.421 111.078 957.172 111.828C957.922 112.579 958.939 113 960 113H988C989.061 113 990.078 112.579 990.828 111.828C991.579 111.078 992 110.061 992 109V95M989 74C989.796 73.2044 990.875 72.7574 992 72.7574C993.125 72.7574 994.204 73.2044 995 74C995.796 74.7957 996.243 75.8748 996.243 77C996.243 78.1252 995.796 79.2044 995 80L976 99L968 101L970 93L989 74Z" stroke="#1E1E1E" stroke-width="4" stroke-linecap="round" stroke-linejoin="round"/>
<rect x="27" y="456" width="134" height="134" rx="20" fill="#A0A0A0"/>
<rect x="762" y="1045" width="134" height="134" rx="20" fill="#A0A0A0"/>
<path d="M909 476C909 464.954 917.954 456 929 456H1023C1034.05 456 1043 464.954 1043 476V570C1043 581.046 1034.05 590 1023 590H929C917.954 590 909 581.046 909 570V476Z" fill="#D9D9D9"/>
<g clip-path="url(#clip0_21_176)">
<path d="M1011.05 558.053C1011.05 554.523 1009.65 551.137 1007.15 548.641C1004.66 546.144 1001.27 544.742 997.742 544.742C994.211 544.742 990.826 546.144 988.329 548.641C985.833 551.137 984.431 554.523 984.431 558.053M997.742 534.093V515.457M997.742 534.093L1008.39 523.444M997.742 534.093L987.093 523.444M977.029 537.341L980.81 541.121M968.457 558.053H973.782M1021.7 558.053H1027.03M1014.67 541.121L1018.45 537.341M1027.03 568.702H968.457" stroke="#1E1E1E" stroke-width="4" stroke-linecap="round" stroke-linejoin="round"/>
</g>
<text fill="black" xml:space="preserve" style="white-space: pre" font-family="Inter" font-size="48" letter-spacing="0em"><tspan x="919" y="510.455">5</tspan></text>
<path d="M27 623C27 611.954 35.9543 603 47 603H141C152.046 603 161 611.954 161 623V717C161 728.046 152.046 737 141 737H47C35.9543 737 27 728.046 27 717V623Z" fill="#D9D9D9"/>
<g clip-path="url(#clip1_21_176)">
<path d="M129.053 705.053C129.053 701.523 127.651 698.137 125.154 695.641C122.658 693.144 119.272 691.742 115.742 691.742C112.211 691.742 108.826 693.144 106.329 695.641C103.833 698.137 102.43 701.523 102.43 705.053M115.742 681.093V662.457M115.742 681.093L126.391 670.444M115.742 681.093L105.093 670.444M95.0294 684.341L98.8098 688.121M86.4569 705.053H91.7814M139.702 705.053H145.026M132.674 688.121L136.454 684.341M145.026 715.702H86.4569" stroke="#1E1E1E" stroke-width="4" stroke-linecap="round" stroke-linejoin="round"/>
</g>
<text fill="black" xml:space="preserve" style="white-space: pre" font-family="Inter" font-size="48" letter-spacing="0em"><tspan x="37" y="657.455">6</tspan></text>
<path d="M174 623C174 611.954 182.954 603 194 603H288C299.046 603 308 611.954 308 623V717C308 728.046 299.046 737 288 737H194C182.954 737 174 728.046 174 717V623Z" fill="#D9D9D9"/>
<g clip-path="url(#clip2_21_176)">
<path d="M276.053 705.053C276.053 701.523 274.651 698.137 272.154 695.641C269.658 693.144 266.272 691.742 262.742 691.742C259.211 691.742 255.826 693.144 253.329 695.641C250.833 698.137 249.43 701.523 249.43 705.053M262.742 681.093V662.457M262.742 681.093L273.391 670.444M262.742 681.093L252.093 670.444M242.029 684.341L245.81 688.121M233.457 705.053H238.781M286.702 705.053H292.026M279.674 688.121L283.454 684.341M292.026 715.702H233.457" stroke="#1E1E1E" stroke-width="4" stroke-linecap="round" stroke-linejoin="round"/>
</g>
<text fill="black" xml:space="preserve" style="white-space: pre" font-family="Inter" font-size="48" letter-spacing="0em"><tspan x="184" y="657.455">7</tspan></text>
<path d="M321 623C321 611.954 329.954 603 341 603H435C446.046 603 455 611.954 455 623V717C455 728.046 446.046 737 435 737H341C329.954 737 321 728.046 321 717V623Z" fill="#D9D9D9"/>
<path d="M425.715 673.106L393.768 705.053M393.768 673.106L425.715 705.053" stroke="#1E1E1E" stroke-width="4" stroke-linecap="round" stroke-linejoin="round"/>
<text fill="black" xml:space="preserve" style="white-space: pre" font-family="Inter" font-size="48" letter-spacing="0em"><tspan x="331" y="657.455">8</tspan></text>
<path d="M468 623C468 611.954 476.954 603 488 603H582C593.046 603 602 611.954 602 623V717C602 728.046 593.046 737 582 737H488C476.954 737 468 728.046 468 717V623Z" fill="#D9D9D9"/>
<path d="M572.715 673.106L540.768 705.053M540.768 673.106L572.715 705.053" stroke="#1E1E1E" stroke-width="4" stroke-linecap="round" stroke-linejoin="round"/>
<text fill="black" xml:space="preserve" style="white-space: pre" font-family="Inter" font-size="48" letter-spacing="0em"><tspan x="478" y="657.455">9</tspan></text>
<path d="M615 623C615 611.954 623.954 603 635 603H729C740.046 603 749 611.954 749 623V717C749 728.046 740.046 737 729 737H635C623.954 737 615 728.046 615 717V623Z" fill="#D9D9D9"/>
<g clip-path="url(#clip3_21_176)">
<path d="M703.742 659.795V665.119M703.742 713.04V718.364M683.029 668.367L686.81 672.148M720.674 706.011L724.454 709.792M674.457 689.079H679.781M727.702 689.079H733.026M683.029 709.792L686.81 706.011M720.674 672.148L724.454 668.367M717.053 689.079C717.053 696.431 711.093 702.391 703.742 702.391C696.39 702.391 690.43 696.431 690.43 689.079C690.43 681.728 696.39 675.768 703.742 675.768C711.093 675.768 717.053 681.728 717.053 689.079Z" stroke="#1E1E1E" stroke-width="4" stroke-linecap="round" stroke-linejoin="round"/>
</g>
<text fill="black" xml:space="preserve" style="white-space: pre" font-family="Inter" font-size="48" letter-spacing="0em"><tspan x="625" y="657.455">10</tspan></text>
<path d="M762 623C762 611.954 770.954 603 782 603H876C887.046 603 896 611.954 896 623V717C896 728.046 887.046 737 876 737H782C770.954 737 762 728.046 762 717V623Z" fill="#D9D9D9"/>
<g clip-path="url(#clip4_21_176)">
<path d="M850.742 659.795V665.119M850.742 713.04V718.364M830.029 668.367L833.81 672.148M867.674 706.011L871.454 709.792M821.457 689.079H826.781M874.702 689.079H880.026M830.029 709.792L833.81 706.011M867.674 672.148L871.454 668.367M864.053 689.079C864.053 696.431 858.093 702.391 850.742 702.391C843.39 702.391 837.43 696.431 837.43 689.079C837.43 681.728 843.39 675.768 850.742 675.768C858.093 675.768 864.053 681.728 864.053 689.079Z" stroke="#1E1E1E" stroke-width="4" stroke-linecap="round" stroke-linejoin="round"/>
</g>
<text fill="black" xml:space="preserve" style="white-space: pre" font-family="Inter" font-size="48" letter-spacing="0em"><tspan x="772" y="657.455">11</tspan></text>
<path d="M909 623C909 611.954 917.954 603 929 603H1023C1034.05 603 1043 611.954 1043 623V717C1043 728.046 1034.05 737 1023 737H929C917.954 737 909 728.046 909 717V623Z" fill="#D9D9D9"/>
<g clip-path="url(#clip5_21_176)">
<path d="M997.742 659.795V665.119M997.742 713.04V718.364M977.029 668.367L980.81 672.148M1014.67 706.011L1018.45 709.792M968.457 689.079H973.782M1021.7 689.079H1027.03M977.029 709.792L980.81 706.011M1014.67 672.148L1018.45 668.367M1011.05 689.079C1011.05 696.431 1005.09 702.391 997.742 702.391C990.39 702.391 984.431 696.431 984.431 689.079C984.431 681.728 990.39 675.768 997.742 675.768C1005.09 675.768 1011.05 681.728 1011.05 689.079Z" stroke="#1E1E1E" stroke-width="4" stroke-linecap="round" stroke-linejoin="round"/>
</g>
<text fill="black" xml:space="preserve" style="white-space: pre" font-family="Inter" font-size="48" letter-spacing="0em"><tspan x="919" y="657.455">12</tspan></text>
<path d="M27 770C27 758.954 35.9543 750 47 750H141C152.046 750 161 758.954 161 770V864C161 875.046 152.046 884 141 884H47C35.9543 884 27 875.046 27 864V770Z" fill="#D9D9D9"/>
<g clip-path="url(#clip6_21_176)">
<path d="M115.742 806.795V812.119M115.742 860.04V865.364M95.0294 815.367L98.8098 819.148M132.674 853.011L136.454 856.792M86.4569 836.079H91.7814M139.702 836.079H145.026M95.0294 856.792L98.8098 853.011M132.674 819.148L136.454 815.367M129.053 836.079C129.053 843.431 123.093 849.391 115.742 849.391C108.39 849.391 102.43 843.431 102.43 836.079C102.43 828.728 108.39 822.768 115.742 822.768C123.093 822.768 129.053 828.728 129.053 836.079Z" stroke="#1E1E1E" stroke-width="4" stroke-linecap="round" stroke-linejoin="round"/>
</g>
<text fill="black" xml:space="preserve" style="white-space: pre" font-family="Inter" font-size="48" letter-spacing="0em"><tspan x="37" y="804.455">13</tspan></text>
<path d="M174 770C174 758.954 182.954 750 194 750H288C299.046 750 308 758.954 308 770V864C308 875.046 299.046 884 288 884H194C182.954 884 174 875.046 174 864V770Z" fill="#D9D9D9"/>
<g clip-path="url(#clip7_21_176)">
<path d="M262.742 806.795V812.119M262.742 860.04V865.364M242.029 815.367L245.81 819.148M279.674 853.011L283.454 856.792M233.457 836.079H238.781M286.702 836.079H292.026M242.029 856.792L245.81 853.011M279.674 819.148L283.454 815.367M276.053 836.079C276.053 843.431 270.093 849.391 262.742 849.391C255.39 849.391 249.43 843.431 249.43 836.079C249.43 828.728 255.39 822.768 262.742 822.768C270.093 822.768 276.053 828.728 276.053 836.079Z" stroke="#1E1E1E" stroke-width="4" stroke-linecap="round" stroke-linejoin="round"/>
</g>
<text fill="black" xml:space="preserve" style="white-space: pre" font-family="Inter" font-size="48" letter-spacing="0em"><tspan x="184" y="804.455">14</tspan></text>
<path d="M321 770C321 758.954 329.954 750 341 750H435C446.046 750 455 758.954 455 770V864C455 875.046 446.046 884 435 884H341C329.954 884 321 875.046 321 864V770Z" fill="#D9D9D9"/>
<g clip-path="url(#clip8_21_176)">
<path d="M409.742 806.795V812.119M409.742 860.04V865.364M389.029 815.367L392.81 819.148M426.674 853.011L430.454 856.792M380.457 836.079H385.781M433.702 836.079H439.026M389.029 856.792L392.81 853.011M426.674 819.148L430.454 815.367M423.053 836.079C423.053 843.431 417.093 849.391 409.742 849.391C402.39 849.391 396.43 843.431 396.43 836.079C396.43 828.728 402.39 822.768 409.742 822.768C417.093 822.768 423.053 828.728 423.053 836.079Z" stroke="#1E1E1E" stroke-width="4" stroke-linecap="round" stroke-linejoin="round"/>
</g>
<text fill="black" xml:space="preserve" style="white-space: pre" font-family="Inter" font-size="48" letter-spacing="0em"><tspan x="331" y="804.455">15</tspan></text>
<path d="M468 770C468 758.954 476.954 750 488 750H582C593.046 750 602 758.954 602 770V864C602 875.046 593.046 884 582 884H488C476.954 884 468 875.046 468 864V770Z" fill="#D9D9D9"/>
<rect x="470.5" y="752.5" width="129" height="129" rx="17.5" stroke="#2C2C2C" stroke-width="5"/>
<g clip-path="url(#clip9_21_176)">
<path d="M556.742 806.795V812.119M556.742 860.04V865.364M536.029 815.367L539.81 819.148M573.674 853.011L577.454 856.792M527.457 836.079H532.781M580.702 836.079H586.026M536.029 856.792L539.81 853.011M573.674 819.148L577.454 815.367M570.053 836.079C570.053 843.431 564.093 849.391 556.742 849.391C549.39 849.391 543.43 843.431 543.43 836.079C543.43 828.728 549.39 822.768 556.742 822.768C564.093 822.768 570.053 828.728 570.053 836.079Z" stroke="#1E1E1E" stroke-width="4" stroke-linecap="round" stroke-linejoin="round"/>
</g>
<text fill="black" xml:space="preserve" style="white-space: pre" font-family="Inter" font-size="48" letter-spacing="0em"><tspan x="478" y="804.455">16</tspan></text>
<path d="M615 770C615 758.954 623.954 750 635 750H729C740.046 750 749 758.954 749 770V864C749 875.046 740.046 884 729 884H635C623.954 884 615 875.046 615 864V770Z" fill="#D9D9D9"/>
<g clip-path="url(#clip10_21_176)">
<path d="M703.742 806.795V812.119M703.742 860.04V865.364M683.029 815.367L686.81 819.148M720.674 853.011L724.454 856.792M674.457 836.079H679.781M727.702 836.079H733.026M683.029 856.792L686.81 853.011M720.674 819.148L724.454 815.367M717.053 836.079C717.053 843.431 711.093 849.391 703.742 849.391C696.39 849.391 690.43 843.431 690.43 836.079C690.43 828.728 696.39 822.768 703.742 822.768C711.093 822.768 717.053 828.728 717.053 836.079Z" stroke="#1E1E1E" stroke-width="4" stroke-linecap="round" stroke-linejoin="round"/>
</g>
<text fill="black" xml:space="preserve" style="white-space: pre" font-family="Inter" font-size="48" letter-spacing="0em"><tspan x="625" y="804.455">17</tspan></text>
<path d="M762 770C762 758.954 770.954 750 782 750H876C887.046 750 896 758.954 896 770V864C896 875.046 887.046 884 876 884H782C770.954 884 762 875.046 762 864V770Z" fill="#D9D9D9"/>
<g clip-path="url(#clip11_21_176)">
<path d="M850.742 806.795V812.119M850.742 860.04V865.364M830.029 815.367L833.81 819.148M867.674 853.011L871.454 856.792M821.457 836.079H826.781M874.702 836.079H880.026M830.029 856.792L833.81 853.011M867.674 819.148L871.454 815.367M864.053 836.079C864.053 843.431 858.093 849.391 850.742 849.391C843.39 849.391 837.43 843.431 837.43 836.079C837.43 828.728 843.39 822.768 850.742 822.768C858.093 822.768 864.053 828.728 864.053 836.079Z" stroke="#1E1E1E" stroke-width="4" stroke-linecap="round" stroke-linejoin="round"/>
</g>
<text fill="black" xml:space="preserve" style="white-space: pre" font-family="Inter" font-size="48" letter-spacing="0em"><tspan x="772" y="804.455">18</tspan></text>
<path d="M909 770C909 758.954 917.954 750 929 750H1023C1034.05 750 1043 758.954 1043 770V864C1043 875.046 1034.05 884 1023 884H929C917.954 884 909 875.046 909 864V770Z" fill="#D9D9D9"/>
<path d="M1008.39 860.04V817.444C1008.39 816.032 1007.83 814.677 1006.83 813.679C1005.83 812.68 1004.48 812.119 1003.07 812.119H992.417C991.005 812.119 989.651 812.68 988.652 813.679C987.654 814.677 987.093 816.032 987.093 817.444V860.04M976.444 822.768H1019.04C1021.98 822.768 1024.36 825.152 1024.36 828.093V854.715C1024.36 857.656 1021.98 860.04 1019.04 860.04H976.444C973.503 860.04 971.119 857.656 971.119 854.715V828.093C971.119 825.152 973.503 822.768 976.444 822.768Z" stroke="#1E1E1E" stroke-width="4" stroke-linecap="round" stroke-linejoin="round"/>
<text fill="black" xml:space="preserve" style="white-space: pre" font-family="Inter" font-size="48" letter-spacing="0em"><tspan x="919" y="804.455">19</tspan></text>
<path d="M27 917C27 905.954 35.9543 897 47 897H141C152.046 897 161 905.954 161 917V1011C161 1022.05 152.046 1031 141 1031H47C35.9543 1031 27 1022.05 27 1011V917Z" fill="#D9D9D9"/>
<path d="M126.391 1007.04V964.444C126.391 963.032 125.83 961.677 124.831 960.679C123.833 959.68 122.478 959.119 121.066 959.119H110.417C109.005 959.119 107.651 959.68 106.652 960.679C105.654 961.677 105.093 963.032 105.093 964.444V1007.04M94.4436 969.768H137.04C139.98 969.768 142.364 972.152 142.364 975.093V1001.72C142.364 1004.66 139.98 1007.04 137.04 1007.04H94.4436C91.503 1007.04 89.1191 1004.66 89.1191 1001.72V975.093C89.1191 972.152 91.503 969.768 94.4436 969.768Z" stroke="#1E1E1E" stroke-width="4" stroke-linecap="round" stroke-linejoin="round"/>
<text fill="black" xml:space="preserve" style="white-space: pre" font-family="Inter" font-size="48" letter-spacing="0em"><tspan x="37" y="951.455">20</tspan></text>
<path d="M174 917C174 905.954 182.954 897 194 897H288C299.046 897 308 905.954 308 917V1011C308 1022.05 299.046 1031 288 1031H194C182.954 1031 174 1022.05 174 1011V917Z" fill="#D9D9D9"/>
<path d="M273.391 1007.04V964.444C273.391 963.032 272.83 961.677 271.831 960.679C270.833 959.68 269.478 959.119 268.066 959.119H257.417C256.005 959.119 254.651 959.68 253.652 960.679C252.654 961.677 252.093 963.032 252.093 964.444V1007.04M241.444 969.768H284.04C286.98 969.768 289.364 972.152 289.364 975.093V1001.72C289.364 1004.66 286.98 1007.04 284.04 1007.04H241.444C238.503 1007.04 236.119 1004.66 236.119 1001.72V975.093C236.119 972.152 238.503 969.768 241.444 969.768Z" stroke="#1E1E1E" stroke-width="4" stroke-linecap="round" stroke-linejoin="round"/>
<text fill="black" xml:space="preserve" style="white-space: pre" font-family="Inter" font-size="48" letter-spacing="0em"><tspan x="184" y="951.455">21</tspan></text>
<path d="M321 917C321 905.954 329.954 897 341 897H435C446.046 897 455 905.954 455 917V1011C455 1022.05 446.046 1031 435 1031H341C329.954 1031 321 1022.05 321 1011V917Z" fill="#D9D9D9"/>
<path d="M420.391 1007.04V964.444C420.391 963.032 419.83 961.677 418.831 960.679C417.833 959.68 416.478 959.119 415.066 959.119H404.417C403.005 959.119 401.651 959.68 400.652 960.679C399.654 961.677 399.093 963.032 399.093 964.444V1007.04M388.444 969.768H431.04C433.98 969.768 436.364 972.152 436.364 975.093V1001.72C436.364 1004.66 433.98 1007.04 431.04 1007.04H388.444C385.503 1007.04 383.119 1004.66 383.119 1001.72V975.093C383.119 972.152 385.503 969.768 388.444 969.768Z" stroke="#1E1E1E" stroke-width="4" stroke-linecap="round" stroke-linejoin="round"/>
<text fill="black" xml:space="preserve" style="white-space: pre" font-family="Inter" font-size="48" letter-spacing="0em"><tspan x="331" y="951.455">22</tspan></text>
<path d="M468 917C468 905.954 476.954 897 488 897H582C593.046 897 602 905.954 602 917V1011C602 1022.05 593.046 1031 582 1031H488C476.954 1031 468 1022.05 468 1011V917Z" fill="#D9D9D9"/>
<path d="M567.391 1007.04V964.444C567.391 963.032 566.83 961.677 565.831 960.679C564.833 959.68 563.478 959.119 562.066 959.119H551.417C550.005 959.119 548.651 959.68 547.652 960.679C546.654 961.677 546.093 963.032 546.093 964.444V1007.04M535.444 969.768H578.04C580.98 969.768 583.364 972.152 583.364 975.093V1001.72C583.364 1004.66 580.98 1007.04 578.04 1007.04H535.444C532.503 1007.04 530.119 1004.66 530.119 1001.72V975.093C530.119 972.152 532.503 969.768 535.444 969.768Z" stroke="#1E1E1E" stroke-width="4" stroke-linecap="round" stroke-linejoin="round"/>
<text fill="black" xml:space="preserve" style="white-space: pre" font-family="Inter" font-size="48" letter-spacing="0em"><tspan x="478" y="951.455">23</tspan></text>
<path d="M615 917C615 905.954 623.954 897 635 897H729C740.046 897 749 905.954 749 917V1011C749 1022.05 740.046 1031 729 1031H635C623.954 1031 615 1022.05 615 1011V917Z" fill="#D9D9D9"/>
<g clip-path="url(#clip12_21_176)">
<path d="M703.742 953.795V959.119M703.742 1007.04V1012.36M683.029 962.367L686.81 966.148M720.674 1000.01L724.454 1003.79M674.457 983.079H679.781M727.702 983.079H733.026M683.029 1003.79L686.81 1000.01M720.674 966.148L724.454 962.367M717.053 983.079C717.053 990.431 711.093 996.391 703.742 996.391C696.39 996.391 690.43 990.431 690.43 983.079C690.43 975.728 696.39 969.768 703.742 969.768C711.093 969.768 717.053 975.728 717.053 983.079Z" stroke="#1E1E1E" stroke-width="4" stroke-linecap="round" stroke-linejoin="round"/>
</g>
<text fill="black" xml:space="preserve" style="white-space: pre" font-family="Inter" font-size="48" letter-spacing="0em"><tspan x="625" y="951.455">24</tspan></text>
<path d="M762 917C762 905.954 770.954 897 782 897H876C887.046 897 896 905.954 896 917V1011C896 1022.05 887.046 1031 876 1031H782C770.954 1031 762 1022.05 762 1011V917Z" fill="#D9D9D9"/>
<g clip-path="url(#clip13_21_176)">
<path d="M850.742 953.795V959.119M850.742 1007.04V1012.36M830.029 962.367L833.81 966.148M867.674 1000.01L871.454 1003.79M821.457 983.079H826.781M874.702 983.079H880.026M830.029 1003.79L833.81 1000.01M867.674 966.148L871.454 962.367M864.053 983.079C864.053 990.431 858.093 996.391 850.742 996.391C843.39 996.391 837.43 990.431 837.43 983.079C837.43 975.728 843.39 969.768 850.742 969.768C858.093 969.768 864.053 975.728 864.053 983.079Z" stroke="#1E1E1E" stroke-width="4" stroke-linecap="round" stroke-linejoin="round"/>
</g>
<text fill="black" xml:space="preserve" style="white-space: pre" font-family="Inter" font-size="48" letter-spacing="0em"><tspan x="772" y="951.455">25</tspan></text>
<path d="M909 918C909 906.954 917.954 898 929 898H1023C1034.05 898 1043 906.954 1043 918V1012C1043 1023.05 1034.05 1032 1023 1032H929C917.954 1032 909 1023.05 909 1012V918Z" fill="#D9D9D9"/>
<g clip-path="url(#clip14_21_176)">
<path d="M997.742 954.795V960.119M997.742 1008.04V1013.36M977.029 963.367L980.81 967.148M1014.67 1001.01L1018.45 1004.79M968.457 984.079H973.782M1021.7 984.079H1027.03M977.029 1004.79L980.81 1001.01M1014.67 967.148L1018.45 963.367M1011.05 984.079C1011.05 991.431 1005.09 997.391 997.742 997.391C990.39 997.391 984.431 991.431 984.431 984.079C984.431 976.728 990.39 970.768 997.742 970.768C1005.09 970.768 1011.05 976.728 1011.05 984.079Z" stroke="#1E1E1E" stroke-width="4" stroke-linecap="round" stroke-linejoin="round"/>
</g>
<text fill="black" xml:space="preserve" style="white-space: pre" font-family="Inter" font-size="48" letter-spacing="0em"><tspan x="919" y="952.455">26</tspan></text>
<path d="M27 1065C27 1053.95 35.9543 1045 47 1045H141C152.046 1045 161 1053.95 161 1065V1159C161 1170.05 152.046 1179 141 1179H47C35.9543 1179 27 1170.05 27 1159V1065Z" fill="#D9D9D9"/>
<g clip-path="url(#clip15_21_176)">
<path d="M115.742 1101.79V1107.12M115.742 1155.04V1160.36M95.0294 1110.37L98.8098 1114.15M132.674 1148.01L136.454 1151.79M86.4569 1131.08H91.7814M139.702 1131.08H145.026M95.0294 1151.79L98.8098 1148.01M132.674 1114.15L136.454 1110.37M129.053 1131.08C129.053 1138.43 123.093 1144.39 115.742 1144.39C108.39 1144.39 102.43 1138.43 102.43 1131.08C102.43 1123.73 108.39 1117.77 115.742 1117.77C123.093 1117.77 129.053 1123.73 129.053 1131.08Z" stroke="#1E1E1E" stroke-width="4" stroke-linecap="round" stroke-linejoin="round"/>
</g>
<text fill="black" xml:space="preserve" style="white-space: pre" font-family="Inter" font-size="48" letter-spacing="0em"><tspan x="37" y="1099.45">27</tspan></text>
<path d="M174 1065C174 1053.95 182.954 1045 194 1045H288C299.046 1045 308 1053.95 308 1065V1159C308 1170.05 299.046 1179 288 1179H194C182.954 1179 174 1170.05 174 1159V1065Z" fill="#D9D9D9"/>
<path d="M286.702 1133.18C286.283 1137.71 284.582 1142.03 281.799 1145.63C279.015 1149.23 275.264 1151.97 270.983 1153.51C266.703 1155.06 262.071 1155.35 257.629 1154.36C253.187 1153.37 249.119 1151.14 245.901 1147.92C242.683 1144.7 240.448 1140.63 239.457 1136.19C238.467 1131.75 238.762 1127.12 240.308 1122.84C241.854 1118.56 244.587 1114.81 248.188 1112.02C251.788 1109.24 256.107 1107.54 260.638 1107.12C257.985 1110.71 256.709 1115.13 257.041 1119.58C257.372 1124.03 259.291 1128.22 262.447 1131.37C265.603 1134.53 269.788 1136.45 274.239 1136.78C278.69 1137.11 283.113 1135.84 286.702 1133.18Z" stroke="#1E1E1E" stroke-width="4" stroke-linecap="round" stroke-linejoin="round"/>
<text fill="black" xml:space="preserve" style="white-space: pre" font-family="Inter" font-size="48" letter-spacing="0em"><tspan x="184" y="1099.45">28</tspan></text>
<path d="M321 1065C321 1053.95 329.954 1045 341 1045H435C446.046 1045 455 1053.95 455 1065V1159C455 1170.05 446.046 1179 435 1179H341C329.954 1179 321 1170.05 321 1159V1065Z" fill="#D9D9D9"/>
<path d="M433.702 1133.18C433.283 1137.71 431.582 1142.03 428.799 1145.63C426.015 1149.23 422.264 1151.97 417.983 1153.51C413.703 1155.06 409.071 1155.35 404.629 1154.36C400.187 1153.37 396.119 1151.14 392.901 1147.92C389.683 1144.7 387.448 1140.63 386.457 1136.19C385.467 1131.75 385.762 1127.12 387.308 1122.84C388.854 1118.56 391.587 1114.81 395.188 1112.02C398.788 1109.24 403.107 1107.54 407.638 1107.12C404.985 1110.71 403.709 1115.13 404.041 1119.58C404.372 1124.03 406.291 1128.22 409.447 1131.37C412.603 1134.53 416.788 1136.45 421.239 1136.78C425.69 1137.11 430.113 1135.84 433.702 1133.18Z" stroke="#1E1E1E" stroke-width="4" stroke-linecap="round" stroke-linejoin="round"/>
<text fill="black" xml:space="preserve" style="white-space: pre" font-family="Inter" font-size="48" letter-spacing="0em"><tspan x="331" y="1099.45">29</tspan></text>
<path d="M468 1065C468 1053.95 476.954 1045 488 1045H582C593.046 1045 602 1053.95 602 1065V1159C602 1170.05 593.046 1179 582 1179H488C476.954 1179 468 1170.05 468 1159V1065Z" fill="#D9D9D9"/>
<path d="M580.702 1133.18C580.283 1137.71 578.582 1142.03 575.799 1145.63C573.015 1149.23 569.264 1151.97 564.983 1153.51C560.703 1155.06 556.071 1155.35 551.629 1154.36C547.187 1153.37 543.119 1151.14 539.901 1147.92C536.683 1144.7 534.448 1140.63 533.457 1136.19C532.467 1131.75 532.762 1127.12 534.308 1122.84C535.854 1118.56 538.587 1114.81 542.188 1112.02C545.788 1109.24 550.107 1107.54 554.638 1107.12C551.985 1110.71 550.709 1115.13 551.041 1119.58C551.372 1124.03 553.291 1128.22 556.447 1131.37C559.603 1134.53 563.788 1136.45 568.239 1136.78C572.69 1137.11 577.113 1135.84 580.702 1133.18Z" stroke="#1E1E1E" stroke-width="4" stroke-linecap="round" stroke-linejoin="round"/>
<text fill="black" xml:space="preserve" style="white-space: pre" font-family="Inter" font-size="48" letter-spacing="0em"><tspan x="478" y="1099.45">30</tspan></text>
<path d="M615 1065C615 1053.95 623.954 1045 635 1045H729C740.046 1045 749 1053.95 749 1065V1159C749 1170.05 740.046 1179 729 1179H635C623.954 1179 615 1170.05 615 1159V1065Z" fill="#D9D9D9"/>
<path d="M727.702 1133.18C727.283 1137.71 725.582 1142.03 722.799 1145.63C720.015 1149.23 716.264 1151.97 711.983 1153.51C707.703 1155.06 703.071 1155.35 698.629 1154.36C694.187 1153.37 690.119 1151.14 686.901 1147.92C683.683 1144.7 681.448 1140.63 680.457 1136.19C679.467 1131.75 679.762 1127.12 681.308 1122.84C682.854 1118.56 685.587 1114.81 689.188 1112.02C692.788 1109.24 697.107 1107.54 701.638 1107.12C698.985 1110.71 697.709 1115.13 698.041 1119.58C698.372 1124.03 700.291 1128.22 703.447 1131.37C706.603 1134.53 710.788 1136.45 715.239 1136.78C719.69 1137.11 724.113 1135.84 727.702 1133.18Z" stroke="#1E1E1E" stroke-width="4" stroke-linecap="round" stroke-linejoin="round"/>
<text fill="black" xml:space="preserve" style="white-space: pre" font-family="Inter" font-size="48" letter-spacing="0em"><tspan x="625" y="1099.45">31</tspan></text>
<rect x="174" y="456" width="134" height="134" rx="20" fill="#A0A0A0"/>
<rect x="909" y="1045" width="134" height="134" rx="20" fill="#A0A0A0"/>
<path d="M321 476C321 464.954 329.954 456 341 456H435C446.046 456 455 464.954 455 476V570C455 581.046 446.046 590 435 590H341C329.954 590 321 581.046 321 570V476Z" fill="#D9D9D9"/>
<path d="M433.702 544.183C433.283 548.714 431.582 553.033 428.799 556.633C426.015 560.234 422.264 562.967 417.983 564.513C413.703 566.059 409.071 566.354 404.629 565.364C400.187 564.373 396.119 562.138 392.901 558.92C389.683 555.702 387.448 551.634 386.457 547.192C385.467 542.75 385.762 538.118 387.308 533.838C388.854 529.558 391.587 525.806 395.188 523.022C398.788 520.239 403.107 518.538 407.638 518.119C404.985 521.709 403.709 526.131 404.041 530.582C404.372 535.033 406.291 539.218 409.447 542.374C412.603 545.53 416.788 547.449 421.239 547.781C425.69 548.113 430.113 546.836 433.702 544.183Z" stroke="#1E1E1E" stroke-width="4" stroke-linecap="round" stroke-linejoin="round"/>
<text fill="black" xml:space="preserve" style="white-space: pre" font-family="Inter" font-size="48" letter-spacing="0em"><tspan x="331" y="510.455">1</tspan></text>
<path d="M468 476C468 464.954 476.954 456 488 456H582C593.046 456 602 464.954 602 476V570C602 581.046 593.046 590 582 590H488C476.954 590 468 581.046 468 570V476Z" fill="#D9D9D9"/>
<path d="M580.702 544.183C580.283 548.714 578.582 553.033 575.799 556.633C573.015 560.234 569.264 562.967 564.983 564.513C560.703 566.059 556.071 566.354 551.629 565.364C547.187 564.373 543.119 562.138 539.901 558.92C536.683 555.702 534.448 551.634 533.457 547.192C532.467 542.75 532.762 538.118 534.308 533.838C535.854 529.558 538.587 525.806 542.188 523.022C545.788 520.239 550.107 518.538 554.638 518.119C551.985 521.709 550.709 526.131 551.041 530.582C551.372 535.033 553.291 539.218 556.447 542.374C559.603 545.53 563.788 547.449 568.239 547.781C572.69 548.113 577.113 546.836 580.702 544.183Z" stroke="#1E1E1E" stroke-width="4" stroke-linecap="round" stroke-linejoin="round"/>
<text fill="black" xml:space="preserve" style="white-space: pre" font-family="Inter" font-size="48" letter-spacing="0em"><tspan x="478" y="510.455">2</tspan></text>
<path d="M615 476C615 464.954 623.954 456 635 456H729C740.046 456 749 464.954 749 476V570C749 581.046 740.046 590 729 590H635C623.954 590 615 581.046 615 570V476Z" fill="#D9D9D9"/>
<path d="M727.702 544.183C727.283 548.714 725.582 553.033 722.799 556.633C720.015 560.234 716.264 562.967 711.983 564.513C707.703 566.059 703.071 566.354 698.629 565.364C694.187 564.373 690.119 562.138 686.901 558.92C683.683 555.702 681.448 551.634 680.457 547.192C679.467 542.75 679.762 538.118 681.308 533.838C682.854 529.558 685.587 525.806 689.188 523.022C692.788 520.239 697.107 518.538 701.638 518.119C698.985 521.709 697.709 526.131 698.041 530.582C698.372 535.033 700.291 539.218 703.447 542.374C706.603 545.53 710.788 547.449 715.239 547.781C719.69 548.113 724.113 546.836 727.702 544.183Z" stroke="#1E1E1E" stroke-width="4" stroke-linecap="round" stroke-linejoin="round"/>
<text fill="black" xml:space="preserve" style="white-space: pre" font-family="Inter" font-size="48" letter-spacing="0em"><tspan x="625" y="510.455">3</tspan></text>
<path d="M762 476C762 464.954 770.954 456 782 456H876C887.046 456 896 464.954 896 476V570C896 581.046 887.046 590 876 590H782C770.954 590 762 581.046 762 570V476Z" fill="#D9D9D9"/>
<path d="M874.702 544.183C874.283 548.714 872.582 553.033 869.799 556.633C867.015 560.234 863.264 562.967 858.983 564.513C854.703 566.059 850.071 566.354 845.629 565.364C841.187 564.373 837.119 562.138 833.901 558.92C830.683 555.702 828.448 551.634 827.457 547.192C826.467 542.75 826.762 538.118 828.308 533.838C829.854 529.558 832.587 525.806 836.188 523.022C839.788 520.239 844.107 518.538 848.638 518.119C845.985 521.709 844.709 526.131 845.041 530.582C845.372 535.033 847.291 539.218 850.447 542.374C853.603 545.53 857.788 547.449 862.239 547.781C866.69 548.113 871.113 546.836 874.702 544.183Z" stroke="#1E1E1E" stroke-width="4" stroke-linecap="round" stroke-linejoin="round"/>
<text fill="black" xml:space="preserve" style="white-space: pre" font-family="Inter" font-size="48" letter-spacing="0em"><tspan x="772" y="510.455">4</tspan></text>
<path d="M72 93C72 93 80 77 94 77C108 77 116 93 116 93C116 93 108 109 94 109C80 109 72 93 72 93Z" stroke="#1E1E1E" stroke-width="4" stroke-linecap="round" stroke-linejoin="round"/>
<path d="M94 99C97.3137 99 100 96.3137 100 93C100 89.6863 97.3137 87 94 87C90.6863 87 88 89.6863 88 93C88 96.3137 90.6863 99 94 99Z" stroke="#1E1E1E" stroke-width="4" stroke-linecap="round" stroke-linejoin="round"/>
<defs>
<clipPath id="clip0_21_176">
<rect width="63.894" height="63.894" fill="white" transform="translate(965.795 510.132)"/>
</clipPath>
<clipPath id="clip1_21_176">
<rect width="63.894" height="63.894" fill="white" transform="translate(83.7947 657.132)"/>
</clipPath>
<clipPath id="clip2_21_176">
<rect width="63.894" height="63.894" fill="white" transform="translate(230.795 657.132)"/>
</clipPath>
<clipPath id="clip3_21_176">
<rect width="63.894" height="63.894" fill="white" transform="translate(671.795 657.132)"/>
</clipPath>
<clipPath id="clip4_21_176">
<rect width="63.894" height="63.894" fill="white" transform="translate(818.795 657.132)"/>
</clipPath>
<clipPath id="clip5_21_176">
<rect width="63.894" height="63.894" fill="white" transform="translate(965.795 657.132)"/>
</clipPath>
<clipPath id="clip6_21_176">
<rect width="63.894" height="63.894" fill="white" transform="translate(83.7947 804.132)"/>
</clipPath>
<clipPath id="clip7_21_176">
<rect width="63.894" height="63.894" fill="white" transform="translate(230.795 804.132)"/>
</clipPath>
<clipPath id="clip8_21_176">
<rect width="63.894" height="63.894" fill="white" transform="translate(377.795 804.132)"/>
</clipPath>
<clipPath id="clip9_21_176">
<rect width="63.894" height="63.894" fill="white" transform="translate(524.795 804.132)"/>
</clipPath>
<clipPath id="clip10_21_176">
<rect width="63.894" height="63.894" fill="white" transform="translate(671.795 804.132)"/>
</clipPath>
<clipPath id="clip11_21_176">
<rect width="63.894" height="63.894" fill="white" transform="translate(818.795 804.132)"/>
</clipPath>
<clipPath id="clip12_21_176">
<rect width="63.894" height="63.894" fill="white" transform="translate(671.795 951.132)"/>
</clipPath>
<clipPath id="clip13_21_176">
<rect width="63.894" height="63.894" fill="white" transform="translate(818.795 951.132)"/>
</clipPath>
<clipPath id="clip14_21_176">
<rect width="63.894" height="63.894" fill="white" transform="translate(965.795 952.132)"/>
</clipPath>
<clipPath id="clip15_21_176">
<rect width="63.894" height="63.894" fill="white" transform="translate(83.7947 1099.13)"/>
</clipPath>
</defs>
</svg>
